<?xml version="1.0" encoding="UTF-8"?>
<svg id="Capa_2" data-name="Capa 2" xmlns="http://www.w3.org/2000/svg" viewBox="0 0 144.45 144.38">
  <defs>
    <style>
      .cls-1 {
        fill: #00df00;
      }
    </style>
  </defs>
  <g id="Capa_1-2" data-name="Capa 1">
    <g id="X7SNUV.tif">
      <g>
        <path class="cls-1" d="M39.29,9.83c4.08-.03,7.31-.12,10.48,.83,3.1,.93,5.43-.71,7.62-2.59,.75-.65,1.48-1.35,2.11-2.11C63.86,.62,69.59-.6,76.08,.24c2.83,.37,4.79,2.17,6.84,3.85,1.99,1.63,3.61,3.65,5.65,5.25,2.15,1.69,4.38,1.73,6.82,1.14,5.34-1.29,10.76-.79,16.12-.49,3.73,.21,8.72,5.91,9.56,9.98,.73,3.55,1.43,7.12,2.27,10.65,.39,1.63,1.25,3.04,2.83,3.93,3.9,2.2,7.89,4.28,11.61,6.76,3.88,2.59,6.51,5.8,6.65,11.15,.16,6.2-2.73,11.2-4.69,16.6-.78,2.16-.91,4.16,.03,6.26,1.19,2.64,2.69,5.23,3.39,8,2.26,8.89,2.31,15.22-6.17,20.06-3.68,2.1-7.27,4.34-10.92,6.48-1.55,.91-2.45,2.33-2.74,3.98-.58,3.26-1.47,6.44-2.15,9.66-1.31,6.14-6.93,11.46-13.41,11.09-3.96-.23-7.94,.25-11.88-.87-3.45-.98-6.51,.26-9.05,2.76-.77,.76-1.59,1.47-2.28,2.31-4.36,5.31-10.15,6.12-16.47,5.31-2.63-.34-4.5-2.05-6.39-3.65-1.33-1.12-2.51-2.42-3.75-3.65-3.1-3.09-6.64-3.63-10.96-2.86-5.5,.99-11.19,1.75-16.58-.85-3.95-1.91-6.1-5.23-7.1-9.36-.81-3.37-1.39-6.79-2.27-10.14-.46-1.77-1.44-3.2-3.26-4.16-3.59-1.9-7-4.15-10.53-6.16C-.98,98.58-.99,91.66,1.33,83.09c.17-.63,.6-1.18,.85-1.8,4.68-11.2,4.09-7.95-.73-20.08-1.87-4.7-1.86-9.48-.41-14.13,.78-2.52,3.22-4.18,5.42-5.64,2.62-1.74,5.27-3.56,8.15-4.75,4.41-1.82,5.47-5.62,6.62-9.53,.89-3.01,1.51-6.15,2.79-8.99,3.12-6.91,8.73-9.44,15.27-8.33Zm.89,10.07c-5.24-.04-5.79,.25-7.14,4.2-1.51,4.46-2.8,9-4.29,13.47-.54,1.62-.99,3.39-2.63,4.38-4.55,2.72-9.1,5.46-13.68,8.14-2.63,1.54-3.15,2.69-2.02,5.49,1.45,3.61,2.84,7.25,4.53,10.75,1.87,3.85,2.06,7.46,.09,11.38-1.78,3.54-3.01,7.36-4.62,11-.99,2.25-.4,3.94,1.53,5.14,4.57,2.85,9.15,5.69,13.83,8.34,2.18,1.24,3.47,2.91,4.26,5.23,1.47,4.31,1.97,8.85,3.23,13.22,.8,2.76,1.96,4.01,4.89,3.82,3.7-.23,7.39-.76,11.08-1.21,5.24-.65,10.02-.21,13.78,4.28,1.84,2.2,4.32,3.87,6.5,5.79,1.67,1.47,3.4,1.67,5.15,.18,2.27-1.94,4.74-3.7,6.71-5.91,3.14-3.52,6.79-5.15,11.47-4.48,.9,.13,1.82,.23,2.73,.2,3.75-.13,7.34,1.23,11.08,1.2,2.06-.02,3.69-.88,4.24-2.82,.91-3.25,1.46-6.6,2.25-9.88,.99-4.12,2.05-7.86,6.52-10.19,4.22-2.19,8.4-4.66,12.35-7.43,2.57-1.8,2.99-2.83,1.88-5.63-1.78-4.47-3.55-8.93-5.46-13.34-.89-2.06-.91-3.94-.03-5.99,1.93-4.49,3.75-9.03,5.56-13.57,1.16-2.92,.66-4-2.13-5.65-4.72-2.79-9.39-5.66-14.08-8.48-1.82-1.09-2.88-2.7-3.38-4.72-1.11-4.57-2.21-9.14-3.35-13.7-.47-1.87-1.65-3.13-3.65-3.17-2.22-.04-4.41,.17-6.65,.51-4.4,.68-8.89,1.16-13.39,.72-1.12-.11-1.99-.75-2.81-1.49-3.15-2.83-6.31-5.66-9.49-8.45-2.03-1.78-3.48-1.84-5.52-.11-2.85,2.41-5.78,4.77-8.38,7.44-2.04,2.09-4.26,2.91-7.11,2.78-4.97-.22-9.89-.72-13.84-1.42Z"/>
        <path class="cls-1" d="M72.2,119.61c-26.54-.83-47.24-20.68-47.25-47.41,0-26.75,20.64-47.27,47.4-47.26,26.65,0,47.13,20.75,47.09,47.33-.04,26.6-20.52,46.58-47.24,47.33Zm-36.42-47.42c-1.74,19.02,17.31,36.6,35.98,36.76,19.96,.16,36.98-17.47,37.18-36.38,.2-19.82-17.35-36.87-36.42-37.15-19.38-.29-38.51,17.8-36.74,36.77Z"/>
        <path class="cls-1" d="M68.16,89.67c-1.57,.06-2.75-.1-3.72-1.09-5.58-5.68-11.24-11.29-16.77-17.01-2.58-2.67-2.48-4.88,0-7.34,2.05-2.03,4.73-2.1,6.84-.03,3.55,3.48,7.04,7.01,10.55,10.54,2.66,2.67,2.93,2.67,5.53,.07,6.15-6.16,12.3-12.32,18.46-18.48,2.9-2.9,7.62-2.04,9.2,1.71,1.17,2.79-.7,4.66-2.33,6.34-5.48,5.66-11.1,11.19-16.68,16.76-2.23,2.23-4.46,4.46-6.72,6.67-1.29,1.26-2.71,2.24-4.37,1.86Z"/>
      </g>
    </g>
  </g>
</svg>