<?xml version="1.0" encoding="UTF-8"?>
<svg id="Capa_2" data-name="Capa 2" xmlns="http://www.w3.org/2000/svg" viewBox="0 0 204.41 144.38">
  <defs>
    <style>
      .cls-1 {
        fill: #00df00;
      }
    </style>
  </defs>
  <g id="Capa_1-2" data-name="Capa 1">
    <g id="Y74igW.tif">
      <g>
        <path class="cls-1" d="M78.25,.03c16.98,0,33.97,0,50.95,0,7.2,0,10.03,2.53,10.52,9.71,.18,2.63,1.56,3.06,3.71,3.05,6.25-.04,12.51,.15,18.75-.06,6.1-.2,9.65,2.62,12.38,7.97,6.09,11.96,11.4,24.33,18.41,35.8,2.5,4.09,5.62,7.84,8.77,11.47,1.75,2.02,2.66,4.06,2.65,6.67-.02,14.63,.04,29.25-.02,43.88-.02,4.44-2.38,6.68-7.21,6.86-4.71,.17-9.43,.07-14.15,.06-1.74,0-2.91,.3-3.81,2.26-3.74,8.06-9.65,13.22-18.58,15.82-11.97,3.48-25.89-4.15-30.37-14.12-1.31-2.92-3.23-4.13-6.58-4.04-9.19,.23-18.4,.18-27.6,.02-2.77-.05-4.18,.91-5.35,3.4-4.73,10.14-13.17,15.49-24.04,15.57-11.01,.08-19.59-5.21-24.45-15.47-1.14-2.42-2.43-3.7-5.3-3.5-3.64,.25-7.31,.11-10.96,.04-5.15-.1-8.8-3.56-8.76-8.2,.04-4.75,3.16-7.42,8.76-7.47,3.42-.03,6.85-.15,10.26,.04,2.84,.16,4.54-.75,5.67-3.52,2.96-7.28,8.26-12.28,15.86-14.45,14.97-4.27,27.73,1.52,33.48,15.07,1.01,2.38,2.24,2.89,4.45,2.88,9.55-.06,19.11-.07,28.66,.01,2.24,.02,3.66-.55,4.7-2.75,3.55-7.58,9.17-12.85,17.27-15.63,8.72-2.99,22,.37,27.75,7.64,2.17,2.74,4.88,5.19,5.46,8.93,.2,1.27,1.15,1.71,2.32,1.73,1.77,.03,3.54,0,5.31,.03,2.17,.03,2.8-1.13,2.79-3.15-.04-6.35-.4-12.74,.15-19.04,.71-8.1-3.54-13.78-8.09-19.5-1.19-1.5-2.94-1.3-4.58-1.3-14.63,0-29.26-.24-43.87,.1-6.5,.15-9.26-2.27-9.4-9.71-.23-12.26-.05-24.53-.07-36.8,0-4.47-.13-4.59-4.57-4.59-30.9-.01-61.8,0-92.71-.02-1.87,0-3.77,.19-5.54-.75-2.94-1.57-4.53-4.68-3.99-7.99C17.85,3.47,21.15,.32,24.82,.11c3.41-.19,6.84-.08,10.26-.08,14.39,0,28.78,0,43.17,0Zm77.62,51.02c4.24,0,8.47,0,12.71,0,2.1,0,3.22-.64,2.03-2.98-2.92-5.76-5.77-11.56-8.66-17.34-.75-1.51-1.97-2.25-3.69-2.24-5.18,.03-10.36,.03-15.53,0-2.09-.02-2.97,.96-2.96,3.01,.03,5.41,.05,10.83-.02,16.24-.03,2.43,1.05,3.38,3.41,3.34,4.24-.07,8.47-.02,12.71-.02Zm-1.93,55.25c-5.75,.02-11.29,5.48-11.26,11.09,.02,5.36,6.49,11.56,11.88,11.39,5.86-.18,10.65-5.49,10.61-11.77-.04-6.54-4.44-10.74-11.23-10.72Zm-76.53,11.02c.06-6.46-4.27-10.96-10.62-11.02-6.65-.07-11.16,4.28-11.34,10.7-.2,7.43,5.03,11.65,11,11.64,5.85,0,10.84-3.82,10.96-11.32Z"/>
        <path class="cls-1" d="M44.23,26.9c9.08,0,18.17-.05,27.25,.02,6.63,.05,10.3,6.39,6.74,11.94-2,3.1-5.58,3.7-9.08,3.71-16.4,.03-32.79,0-49.19,.02-1.8,0-3.47-.29-5.14-1.02-3.82-1.67-5.88-4.75-5.27-8.17,.8-4.42,3.19-6.47,7.8-6.49,8.96-.04,17.93-.01,26.89-.01Z"/>
        <path class="cls-1" d="M34.43,52.38c9.19,0,18.38-.04,27.58,.01,3.95,.02,7.1,2.82,7.53,6.48,.39,3.4-2.44,6.73-6.1,7.97-3.34,1.14-6.67,1.2-10.09,1.19-12.61-.02-25.22-.07-37.83,.03-3.92,.03-7.71-.3-11.48-1.41-2.33-.68-3.66-2.08-3.91-4.43-.15-1.4-.15-2.83-.08-4.24,.21-3.95,1.75-5.55,5.75-5.58,9.55-.08,19.09-.03,28.64-.03Z"/>
        <path class="cls-1" d="M32.12,92.19c-5.3,0-10.6,.07-15.9-.02-3.63-.06-6.37-2.77-6.75-6.39-.38-3.67,1.89-7.24,5.42-7.91,11.52-2.17,23.07-2.17,34.58,.09,2.79,.55,5.44,4.72,5.04,7.6-.57,4.16-2.78,6.53-6.49,6.6-5.3,.1-10.6,.03-15.9,.03Z"/>
      </g>
    </g>
  </g>
</svg>