<?xml version="1.0" encoding="UTF-8"?>
<svg id="Capa_2" data-name="Capa 2" xmlns="http://www.w3.org/2000/svg" viewBox="0 0 143.63 143.83">
  <defs>
    <style>
      .cls-1 {
        fill: #00df00;
      }
    </style>
  </defs>
  <g id="Capa_1-2" data-name="Capa 1">
    <g id="gr62Cr.tif">
      <g>
        <path class="cls-1" d="M.04,99c.61-3.46,1.59-9.08,2.58-14.7,1.32-7.44,2.66-14.87,3.97-22.31,1.21-6.87,2.23-13.77,3.65-20.6,1.23-5.93,5.22-9.59,10.77-11.79,10.25-4.07,20.45-8.24,30.67-12.36,.46-.18,.95-.33,1.44-.38,2.24-.26,3.29-1.55,3.61-3.73,.41-2.88,1.01-5.72,1.48-8.59,.5-3.05,2.52-4.76,5.21-4.37,2.23,.33,3.61,2.79,3.14,5.63-.54,3.28-.97,6.57-1.64,9.83-.51,2.51,1.43,3.23,2.92,4,.62,.32,1.88-.59,2.85-.95,.07-.03,.11-.14,.18-.17,5.34-2.52,5-6.79,3.57-11.43-.22-.71-.31-1.47-.34-2.21-.09-2.25,1.03-3.89,3.05-4.61,2.17-.77,4.28,.37,5.06,2.8,.75,2.36,1.24,4.83,1.51,7.29,.24,2.23,1.24,3,3.37,3.71,5.41,1.82,10.65,4.15,15.95,6.32,6.13,2.52,12.27,5.02,18.36,7.65,4.79,2.07,7.57,6,8.54,10.96,1.78,9.12,3.2,18.32,4.81,27.47,1.67,9.48,3.41,18.95,5.1,28.43,.92,5.15,1.8,10.31,2.67,15.46,.39,2.28,.87,4.55,1.06,6.84,.71,8.48-5.89,15.19-14,16.54-12.2,2.03-24.36,4.29-36.54,6.43-5.23,.92-10.47,1.8-15.71,2.65-2.44,.4-4.88,.88-7.34,1-6.99,.37-14.02-5.67-15.12-12.92-1.07-7.03-1.1-6.99-8.1-8.19-11.29-1.93-22.58-3.88-33.86-5.88C5.52,115.52-.53,108.67,.04,99ZM54.08,26.1c-.8,.04-1.33-.07-1.74,.1-9.98,4.05-20,8.02-29.88,12.3-1.51,.65-2.97,2.55-3.48,4.17-1.07,3.38-1.53,6.95-2.16,10.46-1.31,7.35-2.57,14.71-3.85,22.07-1.46,8.42-3,16.83-4.35,25.27-.61,3.84,1.3,6.82,5.13,7.62,7.46,1.57,14.99,2.86,22.5,4.19,11.76,2.09,23.54,4.09,35.31,6.18,4,.71,7.28-.89,8.34-4.78,1.01-3.75,1.5-7.64,2.17-11.48,2.64-14.95,5.21-29.92,7.94-44.86,.66-3.58-.29-6.31-2.93-8.68-6.31-5.65-12.58-11.34-18.87-17.02-1.58-1.42-3.16-2.84-5.05-4.53-.3,1.18-.5,1.95-.7,2.72-.21,.8-.41,1.61-.65,2.41-.7,2.23-2.45,3.32-4.79,2.9-2.21-.4-3.29-1.85-3.29-4.03,0-1.56,.21-3.11,.35-5.01Zm21.11,.81c.58,.38,1.34,.77,1.95,1.32,5.31,4.78,10.53,9.66,15.9,14.36,5.24,4.59,6.65,10.28,5.38,16.88-.58,3.01-1.21,6.02-1.74,9.04-2.62,14.79-5.46,29.55-7.74,44.39-1.46,9.49-9.38,16.45-21.01,13.65-1.21-.29-2.45-.57-3.67-.58-.46,0-1.28,.74-1.34,1.21-.48,4.32,3.23,8.25,7.58,8.01,1.98-.11,3.96-.47,5.92-.81,9.48-1.68,18.95-3.39,28.42-5.08,8-1.43,16.03-2.76,24.01-4.32,4.86-.95,6.75-3.71,5.95-8.62-1.39-8.52-2.97-17-4.45-25.51-2.77-15.94-5.52-31.89-8.26-47.84-.61-3.53-1.9-6.47-5.53-7.94-9.99-4.04-19.93-8.16-29.91-12.21-4.76-1.93-8.25-.8-11.45,4.05Z"/>
        <path class="cls-1" d="M57.11,46.68c-.34,1.25,.43,2.12,2.04,2.94,1.73,.89,3.26,2.26,4.69,3.61,1.27,1.19,1.69,2.68,.21,4.14-1.47,1.45-2.86,.92-4.2-.17-.58-.47-1.09-1.03-1.65-1.51-1.36-1.18-2.46-1.09-2.82,.83-.76,4.08-1.49,8.17-2,12.28-.09,.68,.85,1.6,1.48,2.25,2.24,2.27,5.25,4.08,6.72,6.75,4.05,7.37-.45,17.41-8.51,20.06-.39,.13-.79,.3-1.19,.35-2.84,.35-4.67,1.54-4.91,4.76-.06,.75-1.83,2.01-2.63,1.88-1.01-.16-1.95-1.42-2.68-2.39-.3-.4-.08-1.32,.13-1.93,.58-1.7,0-2.36-1.65-3.1-2.54-1.13-4.92-2.71-7.17-4.36-1.4-1.02-2.22-2.56-.72-4.28,1.45-1.65,2.87-1.12,4.37-.02,1.4,1.03,2.82,2.05,4.33,2.89,1.46,.81,2.44,.51,2.73-1.43,.75-4.92,1.51-9.85,2.54-14.72,.44-2.07-.3-3.13-1.72-4.43-2.03-1.88-4.34-3.85-5.42-6.28-3.01-6.76,1.97-15.28,9.29-16.51,1.68-.28,3.05-.61,3.17-2.73,.12-2.05,1.14-3.7,3.39-3.42,2.18,.27,2.56,2.07,2.17,4.53Zm-8.03,46.16c5.51-1.25,8.37-4.9,8.21-9.6-.12-3.35-2.3-6.02-5.46-6.43-.89,5.21-1.79,10.43-2.75,16.04Zm.82-38.49c-3.09,.05-5.42,2.45-5.96,5.66-.42,2.52,1.16,4.89,4.01,5.77,.64-3.75,1.28-7.47,1.95-11.43Z"/>
      </g>
    </g>
  </g>
</svg>