<?xml version="1.0" encoding="UTF-8"?>
<svg id="Capa_2" data-name="Capa 2" xmlns="http://www.w3.org/2000/svg" viewBox="0 0 163.43 163.43">
  <defs>
    <style>
      .cls-1 {
        fill: #00df00;
      }

      .cls-2 {
        fill: #fcfcfc;
      }
    </style>
  </defs>
  <g id="Capa_1-2" data-name="Capa 1">
    <circle class="cls-1" cx="81.71" cy="81.71" r="81.71"/>
    <g id="Y74igW.tif">
      <g>
        <path class="cls-2" d="M67.24,38.12c10.26,0,20.52,0,30.78,0,4.35,0,6.06,1.53,6.36,5.87,.11,1.59,.94,1.85,2.24,1.84,3.78-.02,7.56,.09,11.33-.03,3.69-.12,5.83,1.58,7.48,4.82,3.68,7.22,6.89,14.7,11.12,21.62,1.51,2.47,3.39,4.74,5.3,6.93,1.06,1.22,1.6,2.45,1.6,4.03-.01,8.84,.02,17.67-.01,26.51-.01,2.68-1.44,4.04-4.35,4.14-2.85,.1-5.7,.04-8.55,.04-1.05,0-1.76,.18-2.3,1.37-2.26,4.87-5.83,7.99-11.23,9.56-7.23,2.1-15.64-2.51-18.35-8.53-.79-1.76-1.95-2.49-3.98-2.44-5.55,.14-11.12,.11-16.67,.01-1.68-.03-2.53,.55-3.23,2.06-2.86,6.13-7.95,9.36-14.52,9.4-6.65,.05-11.83-3.14-14.77-9.35-.69-1.46-1.47-2.23-3.2-2.11-2.2,.15-4.42,.07-6.62,.02-3.11-.06-5.32-2.15-5.29-4.96,.03-2.87,1.91-4.48,5.29-4.51,2.07-.02,4.14-.09,6.2,.02,1.72,.09,2.74-.45,3.42-2.13,1.79-4.4,4.99-7.42,9.58-8.73,9.04-2.58,16.75,.92,20.23,9.11,.61,1.44,1.35,1.75,2.69,1.74,5.77-.03,11.54-.04,17.31,0,1.35,.01,2.21-.33,2.84-1.66,2.15-4.58,5.54-7.76,10.43-9.44,5.27-1.81,13.29,.22,16.76,4.61,1.31,1.65,2.95,3.13,3.3,5.4,.12,.77,.69,1.03,1.4,1.04,1.07,.02,2.14,0,3.21,.02,1.31,.02,1.69-.69,1.69-1.9-.03-3.84-.24-7.7,.09-11.5,.43-4.89-2.14-8.32-4.89-11.78-.72-.91-1.77-.78-2.77-.78-8.84,0-17.67-.15-26.5,.06-3.92,.09-5.6-1.37-5.68-5.87-.14-7.41-.03-14.82-.04-22.23,0-2.7-.08-2.77-2.76-2.78-18.67,0-37.34,0-56.01,0-1.13,0-2.28,.12-3.35-.46-1.78-.95-2.73-2.83-2.41-4.83,.35-2.11,2.34-4.02,4.56-4.14,2.06-.12,4.13-.05,6.2-.05,8.69,0,17.39,0,26.08,0Zm46.89,30.82c2.56,0,5.12,0,7.68,0,1.27,0,1.95-.38,1.23-1.8-1.77-3.48-3.49-6.98-5.23-10.47-.46-.91-1.19-1.36-2.23-1.35-3.13,.02-6.26,.02-9.38,0-1.26,0-1.8,.58-1.79,1.82,.02,3.27,.03,6.54-.01,9.81-.02,1.47,.64,2.04,2.06,2.02,2.56-.04,5.12-.01,7.68-.01Zm-1.17,33.38c-3.47,.01-6.82,3.31-6.8,6.7,.01,3.24,3.92,6.98,7.18,6.88,3.54-.11,6.43-3.32,6.41-7.11-.02-3.95-2.68-6.49-6.78-6.47Zm-46.23,6.66c.04-3.9-2.58-6.62-6.42-6.66-4.02-.04-6.74,2.59-6.85,6.46-.12,4.49,3.04,7.04,6.64,7.03,3.53,0,6.55-2.31,6.62-6.84Z"/>
        <path class="cls-2" d="M46.69,54.35c5.49,0,10.97-.03,16.46,.01,4.01,.03,6.22,3.86,4.07,7.21-1.21,1.88-3.37,2.24-5.49,2.24-9.9,.02-19.81,0-29.71,.01-1.09,0-2.1-.17-3.11-.62-2.31-1.01-3.55-2.87-3.18-4.94,.48-2.67,1.93-3.91,4.71-3.92,5.42-.02,10.83,0,16.25,0Z"/>
        <path class="cls-2" d="M40.77,69.75c5.55,0,11.11-.02,16.66,0,2.39,.01,4.29,1.7,4.55,3.91,.24,2.06-1.47,4.06-3.68,4.82-2.02,.69-4.03,.73-6.1,.72-7.62-.01-15.24-.04-22.85,.02-2.37,.02-4.66-.18-6.94-.85-1.41-.41-2.21-1.26-2.36-2.68-.09-.85-.09-1.71-.05-2.56,.13-2.39,1.06-3.35,3.47-3.37,5.77-.05,11.53-.02,17.3-.02Z"/>
        <path class="cls-2" d="M39.38,93.8c-3.2,0-6.4,.04-9.6-.01-2.19-.04-3.85-1.67-4.08-3.86-.23-2.21,1.14-4.38,3.27-4.78,6.96-1.31,13.93-1.31,20.89,.06,1.69,.33,3.28,2.85,3.04,4.59-.35,2.51-1.68,3.94-3.92,3.99-3.2,.06-6.4,.02-9.6,.02Z"/>
      </g>
    </g>
  </g>
</svg>