<?xml version="1.0" encoding="UTF-8"?>
<svg id="Capa_2" data-name="Capa 2" xmlns="http://www.w3.org/2000/svg" viewBox="0 0 163.43 163.43">
  <defs>
    <style>
      .cls-1 {
        fill: #00df00;
      }

      .cls-2 {
        fill: #fcfcfc;
      }
    </style>
  </defs>
  <g id="Capa_1-2" data-name="Capa 1">
    <circle class="cls-1" cx="81.71" cy="81.71" r="81.71"/>
    <g id="X7SNUV.tif">
      <g>
        <path class="cls-2" d="M52.2,25.83c3.65-.03,6.55-.11,9.39,.74,2.78,.84,4.87-.64,6.83-2.32,.67-.58,1.33-1.21,1.89-1.9,3.9-4.78,9.04-5.88,14.85-5.12,2.54,.33,4.29,1.94,6.13,3.45,1.78,1.46,3.23,3.27,5.06,4.71,1.93,1.51,3.93,1.55,6.11,1.03,4.78-1.15,9.65-.71,14.45-.44,3.35,.19,7.82,5.3,8.57,8.95,.66,3.19,1.28,6.38,2.03,9.54,.35,1.46,1.12,2.72,2.53,3.52,3.49,1.97,7.07,3.83,10.4,6.06,3.48,2.32,5.84,5.2,5.96,9.99,.14,5.56-2.45,10.03-4.2,14.87-.7,1.93-.82,3.73,.03,5.61,1.07,2.37,2.41,4.68,3.04,7.17,2.03,7.97,2.07,13.64-5.53,17.98-3.29,1.88-6.51,3.89-9.79,5.81-1.39,.82-2.2,2.09-2.46,3.57-.52,2.92-1.32,5.77-1.93,8.66-1.17,5.5-6.21,10.27-12.01,9.94-3.55-.21-7.11,.23-10.65-.78-3.09-.88-5.84,.23-8.11,2.47-.69,.68-1.43,1.32-2.04,2.07-3.91,4.76-9.09,5.49-14.76,4.76-2.36-.3-4.03-1.84-5.73-3.27-1.19-1-2.25-2.17-3.36-3.27-2.78-2.76-5.95-3.25-9.82-2.56-4.93,.89-10.03,1.57-14.86-.77-3.54-1.71-5.47-4.69-6.36-8.39-.73-3.02-1.25-6.09-2.03-9.09-.41-1.58-1.29-2.87-2.92-3.73-3.22-1.7-6.27-3.72-9.44-5.52-7.37-4.2-7.38-10.41-5.3-18.09,.15-.56,.53-1.06,.76-1.61,4.19-10.04,3.66-7.12-.66-17.99-1.67-4.21-1.66-8.5-.37-12.67,.7-2.26,2.88-3.75,4.86-5.06,2.35-1.56,4.72-3.19,7.3-4.26,3.95-1.63,4.9-5.04,5.93-8.54,.79-2.7,1.36-5.51,2.5-8.06,2.79-6.19,7.83-8.46,13.68-7.46Zm.8,9.02c-4.7-.04-5.19,.22-6.4,3.77-1.36,4-2.51,8.06-3.84,12.07-.48,1.45-.88,3.04-2.36,3.92-4.08,2.44-8.16,4.89-12.26,7.29-2.35,1.38-2.82,2.41-1.81,4.92,1.3,3.23,2.54,6.5,4.06,9.63,1.67,3.45,1.85,6.69,.08,10.2-1.6,3.17-2.7,6.6-4.14,9.86-.89,2.02-.36,3.53,1.37,4.61,4.09,2.55,8.2,5.1,12.39,7.48,1.96,1.11,3.11,2.61,3.82,4.69,1.32,3.87,1.77,7.93,2.9,11.84,.72,2.48,1.76,3.59,4.38,3.43,3.32-.21,6.62-.68,9.93-1.09,4.7-.58,8.98-.19,12.35,3.83,1.65,1.97,3.87,3.47,5.83,5.19,1.5,1.32,3.05,1.5,4.61,.16,2.04-1.73,4.25-3.32,6.02-5.3,2.81-3.15,6.09-4.62,10.28-4.01,.81,.12,1.63,.21,2.45,.18,3.37-.12,6.58,1.1,9.93,1.08,1.84-.01,3.31-.79,3.8-2.53,.82-2.91,1.31-5.91,2.02-8.85,.89-3.69,1.83-7.05,5.84-9.13,3.78-1.97,7.53-4.18,11.06-6.66,2.3-1.61,2.68-2.54,1.69-5.04-1.59-4-3.19-8.01-4.89-11.96-.8-1.84-.82-3.53-.03-5.37,1.73-4.02,3.36-8.09,4.98-12.16,1.04-2.62,.59-3.58-1.91-5.06-4.23-2.5-8.41-5.07-12.62-7.6-1.63-.98-2.58-2.42-3.03-4.23-1-4.09-1.98-8.19-3.01-12.28-.42-1.67-1.48-2.8-3.27-2.84-1.99-.04-3.96,.15-5.96,.46-3.95,.61-7.97,1.04-12,.64-1-.1-1.78-.67-2.52-1.33-2.82-2.54-5.65-5.07-8.5-7.57-1.82-1.6-3.12-1.65-4.95-.1-2.55,2.16-5.18,4.28-7.51,6.66-1.83,1.87-3.82,2.61-6.37,2.49-4.45-.2-8.87-.65-12.4-1.28Z"/>
        <path class="cls-2" d="M81.7,124.22c-23.78-.74-42.34-18.53-42.34-42.49,0-23.97,18.5-42.36,42.48-42.35,23.88,0,42.23,18.6,42.2,42.42-.04,23.84-18.39,41.74-42.34,42.42Zm-32.64-42.5c-1.56,17.04,15.51,32.8,32.25,32.94,17.89,.15,33.14-15.66,33.32-32.6,.18-17.76-15.55-33.04-32.64-33.3-17.37-.26-34.51,15.95-32.92,32.96Z"/>
        <path class="cls-2" d="M78.07,97.38c-1.4,.05-2.46-.09-3.34-.98-5-5.09-10.07-10.12-15.03-15.24-2.31-2.39-2.22-4.37,0-6.57,1.84-1.82,4.24-1.88,6.13-.03,3.18,3.12,6.31,6.29,9.46,9.44,2.38,2.39,2.63,2.39,4.96,.06,5.51-5.52,11.03-11.04,16.55-16.56,2.6-2.6,6.83-1.82,8.25,1.53,1.05,2.5-.63,4.17-2.09,5.68-4.91,5.08-9.95,10.03-14.95,15.02-2,2-4,4-6.02,5.97-1.15,1.13-2.43,2.01-3.92,1.67Z"/>
      </g>
    </g>
  </g>
</svg>