<?xml version="1.0" encoding="UTF-8"?>
<svg id="Capa_2" data-name="Capa 2" xmlns="http://www.w3.org/2000/svg" viewBox="0 0 163.43 163.43">
  <defs>
    <style>
      .cls-1 {
        fill: #00df00;
      }

      .cls-2 {
        fill: #fcfcfc;
      }
    </style>
  </defs>
  <g id="Capa_1-2" data-name="Capa 1">
    <circle class="cls-1" cx="81.71" cy="81.71" r="81.71"/>
    <g id="gr62Cr.tif">
      <g>
        <path class="cls-2" d="M25.93,102.76c.47-2.69,1.23-7.06,2.01-11.43,1.02-5.78,2.07-11.56,3.09-17.34,.94-5.34,1.73-10.7,2.84-16.01,.96-4.61,4.06-7.45,8.37-9.16,7.96-3.16,15.89-6.41,23.84-9.61,.36-.14,.74-.25,1.12-.3,1.74-.2,2.56-1.2,2.8-2.9,.32-2.23,.78-4.45,1.15-6.68,.39-2.37,1.96-3.7,4.05-3.4,1.74,.25,2.8,2.17,2.44,4.38-.42,2.55-.76,5.11-1.27,7.64-.4,1.95,1.11,2.51,2.27,3.11,.48,.25,1.46-.46,2.21-.73,.05-.02,.08-.11,.14-.13,4.15-1.96,3.88-5.28,2.77-8.89-.17-.55-.24-1.14-.26-1.72-.07-1.75,.8-3.02,2.37-3.58,1.69-.6,3.33,.29,3.93,2.18,.58,1.83,.97,3.75,1.17,5.67,.19,1.73,.97,2.33,2.62,2.89,4.21,1.41,8.28,3.22,12.39,4.91,4.77,1.96,9.54,3.9,14.27,5.95,3.72,1.61,5.88,4.67,6.64,8.51,1.38,7.09,2.48,14.24,3.74,21.35,1.3,7.37,2.65,14.73,3.97,22.1,.71,4,1.4,8.01,2.08,12.02,.3,1.77,.67,3.53,.82,5.32,.55,6.59-4.58,11.8-10.88,12.85-9.48,1.58-18.93,3.34-28.4,5-4.07,.71-8.14,1.4-12.21,2.06-1.89,.31-3.8,.68-5.71,.78-5.44,.29-10.89-4.41-11.75-10.04-.83-5.47-.86-5.44-6.3-6.36-8.78-1.5-17.55-3.01-26.31-4.57-5.73-1.02-10.44-6.34-10-13.86Zm42-56.65c-.62,.03-1.03-.05-1.36,.08-7.76,3.14-15.54,6.23-23.22,9.56-1.18,.51-2.31,1.98-2.71,3.24-.83,2.63-1.19,5.4-1.68,8.13-1.02,5.71-2,11.44-2.99,17.15-1.14,6.54-2.33,13.08-3.38,19.64-.48,2.98,1.01,5.3,3.98,5.92,5.8,1.22,11.65,2.22,17.49,3.25,9.14,1.62,18.3,3.18,27.44,4.8,3.11,.55,5.66-.69,6.48-3.72,.79-2.91,1.16-5.94,1.69-8.92,2.05-11.62,4.05-23.25,6.17-34.86,.51-2.78-.22-4.91-2.28-6.75-4.91-4.39-9.78-8.82-14.66-13.23-1.23-1.11-2.46-2.2-3.92-3.52-.24,.91-.39,1.52-.55,2.12-.16,.62-.32,1.25-.51,1.87-.54,1.74-1.9,2.58-3.72,2.25-1.72-.31-2.56-1.43-2.56-3.13,0-1.21,.16-2.42,.28-3.9Zm16.41,.63c.45,.3,1.04,.6,1.51,1.02,4.13,3.71,8.18,7.51,12.35,11.16,4.07,3.57,5.17,7.99,4.18,13.12-.45,2.34-.94,4.68-1.35,7.03-2.04,11.49-4.24,22.96-6.02,34.5-1.13,7.38-7.29,12.78-16.33,10.61-.94-.23-1.9-.45-2.85-.45-.36,0-1,.57-1.04,.94-.37,3.36,2.51,6.41,5.89,6.23,1.54-.09,3.08-.36,4.6-.63,7.37-1.3,14.73-2.63,22.09-3.95,6.22-1.11,12.46-2.15,18.66-3.36,3.78-.74,5.25-2.88,4.63-6.7-1.08-6.62-2.31-13.21-3.46-19.82-2.15-12.39-4.29-24.78-6.42-37.18-.47-2.74-1.48-5.03-4.3-6.17-7.76-3.14-15.49-6.34-23.25-9.49-3.7-1.5-6.41-.62-8.9,3.15Z"/>
        <path class="cls-2" d="M70.28,62.1c-.26,.97,.34,1.65,1.59,2.29,1.35,.69,2.53,1.76,3.65,2.81,.98,.93,1.31,2.08,.17,3.22-1.14,1.13-2.22,.71-3.26-.13-.45-.36-.84-.8-1.28-1.18-1.06-.92-1.91-.84-2.19,.65-.59,3.17-1.15,6.35-1.56,9.55-.07,.53,.66,1.25,1.15,1.75,1.74,1.76,4.08,3.17,5.22,5.25,3.14,5.73-.35,13.53-6.61,15.59-.31,.1-.61,.23-.93,.27-2.21,.27-3.63,1.19-3.82,3.7-.04,.58-1.42,1.56-2.05,1.46-.79-.13-1.52-1.1-2.08-1.85-.23-.31-.06-1.03,.1-1.5,.45-1.32,0-1.84-1.28-2.41-1.97-.88-3.82-2.1-5.57-3.38-1.09-.8-1.73-1.99-.56-3.32,1.13-1.29,2.23-.87,3.4-.02,1.09,.8,2.19,1.59,3.37,2.25,1.14,.63,1.89,.4,2.12-1.11,.58-3.83,1.18-7.65,1.98-11.44,.34-1.61-.24-2.43-1.33-3.45-1.58-1.46-3.37-2.99-4.21-4.88-2.34-5.25,1.53-11.88,7.22-12.83,1.31-.22,2.37-.47,2.47-2.13,.09-1.59,.89-2.87,2.63-2.66,1.7,.21,1.99,1.61,1.68,3.52Zm-6.24,35.88c4.29-.97,6.51-3.8,6.38-7.46-.09-2.61-1.79-4.68-4.24-5-.69,4.05-1.39,8.1-2.13,12.46Zm.63-29.91c-2.4,.04-4.21,1.9-4.63,4.4-.33,1.96,.9,3.8,3.12,4.49,.5-2.91,.99-5.8,1.52-8.88Z"/>
      </g>
    </g>
  </g>
</svg>