<?xml version="1.0" encoding="UTF-8"?>
<svg id="Capa_2" data-name="Capa 2" xmlns="http://www.w3.org/2000/svg" viewBox="0 0 163.43 163.43">
  <defs>
    <style>
      .cls-1 {
        fill: #00df00;
      }

      .cls-2 {
        fill: #fcfcfc;
      }
    </style>
  </defs>
  <g id="Capa_1-2" data-name="Capa 1">
    <circle class="cls-1" cx="81.71" cy="81.71" r="81.71"/>
    <g id="jIF6Ff.tif">
      <g>
        <path class="cls-2" d="M132.98,81.86c0,13.51-.18,27.01,.09,40.51,.11,5.42-5.49,10.73-10.59,10.7-27.21-.18-54.42-.17-81.63,0-5.03,.03-10.52-5.3-10.49-10.58,.18-27.21,.17-54.42,0-81.64-.03-5.03,5.3-10.52,10.58-10.49,27.21,.18,54.42,.17,81.63,0,5.06-.03,10.59,5.32,10.49,10.58-.25,13.64-.08,27.28-.08,40.92Zm-51.06-21.46c-13.5,0-27.01,0-40.51,0-2.77,0-2.78,.01-2.78,2.82,0,18.68,0,37.36,0,56.04,0,3.99,1.56,5.53,5.66,5.53,24.93,0,49.85,0,74.78,0,4.15,0,5.73-1.57,5.73-5.72,0-18.61,0-37.22,0-55.84,0-2.83,0-2.84-2.96-2.84-13.3,0-26.61,0-39.91,0Zm-.24-8.19c9.27,0,18.53,0,27.8,0,4.43,0,8.86,0,13.29,0,1.11,0,2.03-.12,2.01-1.57-.03-2.62,.1-5.24-.06-7.85-.16-2.6-1.93-4.15-4.54-4.15-25.65-.02-51.3-.02-76.95,0-2.84,0-4.56,1.81-4.6,4.7-.03,2.01-.01,4.03,0,6.04,0,2.82,0,2.83,2.77,2.83,13.43,0,26.86,0,40.29,0Z"/>
        <path class="cls-2" d="M47.77,92.52c-.12-3.05,.94-5.85,3.11-8.11,3.01-3.15,6.16-6.17,9.31-9.19,1.7-1.63,4.96-1.72,6.43-.3,1.55,1.48,1.5,4.78-.21,6.58-2.77,2.92-5.63,5.75-8.43,8.64-1.7,1.76-1.76,3.09-.07,4.87,2.82,2.96,5.75,5.82,8.57,8.79,1.63,1.71,1.67,4.96,.21,6.43-1.45,1.46-4.75,1.45-6.43-.16-3.15-3.01-6.29-6.04-9.31-9.18-2.17-2.26-3.26-5.04-3.17-8.35Z"/>
        <path class="cls-2" d="M115.65,92.42c.05,3.48-1.04,6.25-3.22,8.5-2.98,3.09-6.07,6.07-9.17,9.04-1.79,1.71-5.1,1.75-6.58,.21-1.41-1.48-1.31-4.74,.31-6.44,2.83-2.96,5.75-5.82,8.57-8.79,1.62-1.7,1.61-3-.02-4.72-2.77-2.92-5.66-5.73-8.44-8.64-1.74-1.82-1.88-5.06-.4-6.58,1.5-1.54,4.77-1.47,6.58,.26,3.1,2.97,6.2,5.95,9.17,9.04,2.22,2.31,3.33,5.16,3.2,8.12Z"/>
        <path class="cls-2" d="M89.42,78.96c-.32,3.41-1.35,6.66-2.2,9.95-.8,3.09-1.47,6.22-2.28,9.31-.96,3.68-1.9,7.37-3.04,10.99-.55,1.75-2.68,2.43-5.21,1.93-1.85-.37-2.63-1.62-2.7-3.47-.16-3.98,1.37-7.61,2.24-11.37,.72-3.11,1.45-6.22,2.26-9.31,.96-3.68,1.91-7.37,3.04-10.99,.55-1.74,2.68-2.43,5.21-1.92,1.74,.35,2.63,1.5,2.68,3.28,.01,.54,0,1.07,0,1.61Z"/>
        <path class="cls-2" d="M94.39,49.51c-.6,0-1.21,0-1.81,0-3.53-.06-5.37-3.12-3.75-6.32,.58-1.14,1.54-1.84,2.89-1.84,1.81,0,3.62-.07,5.42,.02,2.18,.11,3.16,1.43,3.17,4.02,0,2.61-.96,3.91-3.11,4.08-.93,.07-1.87,.01-2.81,.01,0,0,0,.02,0,.03Z"/>
        <path class="cls-2" d="M112.58,49.51c-.54,0-1.07,0-1.61,0-3.7-.04-5.48-2.66-4.08-6.1,.48-1.18,1.4-2,2.74-2.03,1.94-.05,3.89-.11,5.82,0,2.09,.13,3.03,1.53,3.01,4.17-.02,2.46-1,3.74-3.07,3.92-.93,.08-1.87,.01-2.81,.01,0,.01,0,.02,0,.03Z"/>
      </g>
    </g>
  </g>
</svg>