<?xml version="1.0" encoding="UTF-8"?>
<svg id="Capa_2" data-name="Capa 2" xmlns="http://www.w3.org/2000/svg" viewBox="0 0 209.5 67.17">
  <defs>
    <style>
      .cls-1 {
        fill: #00df00;
      }

      .cls-2 {
        fill: #101316;
      }
    </style>
  </defs>
  <g id="Capa_1-2" data-name="Capa 1">
    <g>
      <path class="cls-2" d="M17.74,38.29c-.27,.38-.4,.72-.4,1.05,0,.78,.73,1.43,2.19,1.95,1.46,.52,3.24,.85,5.33,.99,.35,3.86,.72,6.06,1.13,6.6-.51,.99-1.92,1.99-4.22,3-2.31,1.01-4.91,1.51-7.8,1.51-3.83,0-7.12-.82-9.85-2.47-2.73-1.65-4.1-3.77-4.1-6.37,0-.7,.07-1.31,.2-1.85L8.77,4.38c2.14-1.37,4.71-2.44,7.68-3.22,2.98-.78,6.07-1.17,9.29-1.17,4.61,0,8.55,.78,11.82,2.33,3.73,1.77,5.99,4.33,6.8,7.68l9.17,37.93c-2.79,3.62-7.33,5.43-13.63,5.43-3.06,0-5.64-.55-7.76-1.65-2.12-1.1-3.35-2.67-3.7-4.71l-.88-4.91c1.61-.03,3.16-.33,4.67-.93,1.5-.59,2.25-1.21,2.25-1.85,0-.43-.17-.78-.52-1.05-1.02,.72-2.27,1.27-3.74,1.65-1.47,.38-2.84,.56-4.1,.56-3.62,0-6.41-.74-8.37-2.21Zm8.97-11.74c.46,0,.84-.09,1.17-.28-.7-4.08-1.17-6.49-1.41-7.24-.29-.78-.74-1.17-1.33-1.17-.27,0-.59,.08-.96,.24l1.53,8.12c.21,.21,.55,.32,1,.32Z"/>
      <path class="cls-2" d="M74.85,15.89v16.49c0,4,.97,6.6,2.9,7.8,.03,.13,.04,.39,.04,.76v.72c0,3.83-.97,6.74-2.92,8.73-1.94,1.98-4.7,2.98-8.26,2.98s-6.4-.99-8.49-2.98c-2.49-2.36-3.74-5.93-3.74-10.7V9.69c2.82-1.72,6.04-2.57,9.67-2.57s6.34,.77,8.12,2.31c1.78,1.54,2.67,3.69,2.67,6.46Z"/>
      <path class="cls-2" d="M100.02,15.89v16.49c0,4,.97,6.6,2.9,7.8,.03,.13,.04,.39,.04,.76v.72c0,3.83-.97,6.74-2.92,8.73-1.94,1.98-4.7,2.98-8.26,2.98s-6.4-.99-8.49-2.98c-2.49-2.36-3.74-5.93-3.74-10.7V9.69c2.82-1.72,6.04-2.57,9.67-2.57s6.34,.77,8.12,2.31c1.78,1.54,2.67,3.69,2.67,6.46Z"/>
      <path class="cls-2" d="M127.61,53.89c-7.43,0-13.29-2.06-17.58-6.19-4.4-4.16-6.6-9.85-6.6-17.07s2.26-12.96,6.8-17.19c4.18-3.94,9.48-5.91,15.89-5.91s11.55,1.76,15.42,5.29c3.87,3.53,5.81,7.86,5.81,13.01,0,4.58-1.6,8.04-4.79,10.38-2.95,2.2-6.97,3.3-12.07,3.3-3.81,0-7.02-.79-9.65-2.37-.21,.16-.32,.46-.32,.88,0,.8,1.06,1.54,3.18,2.21,2.12,.72,4.52,1.09,7.22,1.09s5.15-.34,7.36-1.03,3.99-1.49,5.33-2.43c.64,.56,1.16,1.6,1.55,3.12,.39,1.52,.58,2.9,.58,4.14s-.12,2.35-.36,3.32c-2.09,1.77-4.24,3.03-6.43,3.78-3.11,1.13-6.89,1.69-11.34,1.69Zm-.52-27.23c1.34,0,2.01-.51,2.01-1.53,0-.97-.71-1.45-2.13-1.45s-2.24,.76-2.45,2.29c.75,.46,1.61,.68,2.57,.68Z"/>
      <path class="cls-2" d="M169.48,32.34v.92c0,.43,.01,.74,.04,.92,.27,.13,.56,.2,.88,.2,.78,0,1.17-.59,1.17-1.77,0-3.94,.22-8.04,.66-12.29,.44-4.25,.92-7.53,1.43-9.83,2.17-1.58,5.07-2.37,8.69-2.37s6.42,.7,8.39,2.11,2.96,3.1,2.96,5.09c0,.83-.5,4.26-1.49,10.3-1.1,6.14-2.51,12.6-4.22,19.39-.35,1.37-.97,3.28-1.87,5.75-.9,2.47-1.86,4.52-2.88,6.15-3.19,5.07-7.13,8.2-11.82,9.41-2.2,.56-4.41,.84-6.64,.84-4.32,0-7.66-1.07-10.01-3.22-2.17-1.93-3.26-4.32-3.26-7.18s.84-5.54,2.53-8.06c.4-.11,1.14-.16,2.21-.16s2.41,.13,4.02,.4c4.45,.83,6.72,1.25,6.8,1.25,.19,.03,.4,.06,.62,.1,.23,.04,.53,.06,.9,.06s.7-.11,.97-.32c.27-.21,.4-.64,.4-1.29l-9.49-1.81c-2.33-.97-4.36-2.99-6.07-6.07-2.12-3.81-3.55-8.97-4.3-15.48-1.77-2.31-2.65-5.07-2.65-8.29s.8-6.02,2.41-8.41h10.34c3.46,0,6.05,.99,7.76,2.98,1.26,1.47,2.06,3.63,2.41,6.48-.59,4.67-.89,9.4-.89,14.2Z"/>
      <path class="cls-1" d="M195.54,38.97c1.6-1.6,3.52-2.41,5.75-2.41s4.16,.8,5.81,2.41c1.6,1.64,2.41,3.58,2.41,5.82s-.8,4.16-2.41,5.76c-1.62,1.59-3.56,2.38-5.81,2.38s-4.17-.8-5.76-2.39c-1.59-1.6-2.39-3.51-2.39-5.75s.8-4.18,2.41-5.82Z"/>
    </g>
  </g>
</svg>